<svg xmlns="http://www.w3.org/2000/svg" width="451px" height="283px" viewBox="0 0 451 283" fill="none">
<path d="M290.058 0.0687561C290.058 0.308762 290.778 2.62875 291.658 5.26875C296.218 18.5488 297.018 44.1488 293.178 55.5888C292.778 56.8688 291.898 61.9888 291.258 66.8688C290.458 73.1888 289.498 77.2688 287.818 80.8688L285.578 85.9888L284.938 81.1888C284.218 75.1088 282.058 67.5888 281.258 68.5488C280.938 68.8688 280.138 71.0288 279.418 73.2688C276.298 82.9488 268.698 93.5888 252.298 111.269C240.458 123.989 239.898 124.869 237.338 133.109C235.658 138.629 234.938 151.189 236.378 151.189C238.378 151.189 276.698 125.349 283.418 119.429C289.258 114.309 297.258 104.629 301.498 97.4288C304.698 92.0688 305.418 92.7088 302.858 98.7088C297.178 112.069 283.658 125.829 256.858 145.589C239.258 158.549 233.658 163.509 230.298 169.029C227.338 173.829 227.258 174.229 227.258 181.589C227.258 188.309 227.498 189.669 229.418 193.189L231.578 197.189L231.658 191.829C231.658 185.109 234.058 178.549 237.818 174.309C241.338 170.389 248.778 166.789 256.538 165.189C265.898 163.269 272.218 160.949 281.178 156.309C291.018 151.109 294.858 148.549 300.138 143.589L304.058 139.909L300.778 141.509C296.458 143.589 286.858 146.709 286.298 146.149C286.138 145.909 287.098 145.109 288.618 144.309C300.298 138.309 316.458 121.269 324.618 106.389C327.178 101.669 331.658 91.2688 331.658 89.9888C331.658 89.6688 330.298 91.1888 328.538 93.3488C323.898 99.1088 316.618 105.589 314.698 105.589C314.458 105.589 315.578 102.549 317.338 98.7887C330.298 71.2688 324.778 40.3887 301.978 12.3887C297.498 6.94876 290.058 -0.811249 290.058 0.0687561Z" fill="url(#paint0_linear_1_18)"/>
<path d="M120.538 116.069C118.138 117.829 115.978 119.349 115.818 119.509C115.658 119.669 119.978 122.229 125.418 125.269C177.818 154.149 209.418 190.309 224.378 238.389L226.778 245.989V235.189C226.858 224.629 226.778 224.069 223.738 215.189C222.058 210.149 220.058 204.549 219.258 202.789C205.658 169.989 179.578 142.309 143.258 121.829C134.458 116.949 126.298 112.789 125.498 112.789C125.178 112.869 122.858 114.309 120.538 116.069Z" fill="url(#paint1_linear_1_18)"/>
<path d="M73.2581 148.709C65.5781 155.749 59.1781 161.829 59.0181 162.309C58.6981 163.349 58.1381 163.109 69.8981 166.309C92.2981 172.469 97.6581 173.989 109.578 177.669C165.738 195.109 199.818 213.989 221.178 239.589L223.818 242.789L223.258 239.989C222.218 235.269 217.338 223.189 212.378 213.509C205.738 200.469 197.498 188.789 192.058 184.789C177.818 174.309 156.298 163.109 132.298 153.589C124.218 150.469 114.218 146.469 110.058 144.789C101.898 141.429 87.8181 135.989 87.4981 135.989C87.3381 135.989 80.9381 141.749 73.2581 148.709Z" fill="url(#paint2_linear_1_18)"/>
<path d="M361.658 140.549C360.778 140.709 355.178 142.149 349.178 143.669C298.378 156.389 255.818 183.989 232.138 219.509L228.458 225.109V235.909C228.538 245.749 228.618 246.629 229.738 245.189C230.378 244.309 233.178 240.309 235.898 236.389C241.258 228.549 256.698 212.549 265.658 205.509C289.418 186.709 320.698 172.229 355.818 163.669C372.698 159.589 380.538 157.989 390.058 156.469L396.858 155.509L381.338 147.749C372.778 143.509 365.258 140.069 364.538 140.069C363.818 140.149 362.538 140.309 361.658 140.549Z" fill="url(#paint3_linear_1_18)"/>
<path d="M364.458 169.589C314.218 179.909 283.898 193.589 255.258 218.709C245.018 227.669 236.378 237.189 233.578 242.469C232.378 244.789 232.778 244.629 238.138 240.229C246.138 233.669 250.618 230.629 260.058 225.429C277.498 215.829 298.058 207.669 324.218 200.069C343.498 194.389 382.298 187.269 401.178 185.909C404.938 185.589 408.458 185.189 409.018 184.869C410.138 184.309 382.458 166.389 380.618 166.469C379.818 166.469 372.618 167.909 364.458 169.589Z" fill="url(#paint4_linear_1_18)"/>
<path d="M61.4182 189.589C53.4182 198.389 46.8582 205.989 46.8582 206.469C46.8582 206.869 47.0982 207.109 47.4982 206.949C50.6182 204.949 99.5782 203.989 116.458 205.589C152.538 208.949 188.218 220.309 211.258 235.669C221.338 242.389 221.498 242.469 215.658 236.469C209.338 229.909 198.618 221.669 188.538 215.589C170.938 204.869 140.618 191.429 119.258 184.789C103.418 179.829 79.4982 173.589 76.4582 173.589C76.1382 173.589 69.4182 180.789 61.4182 189.589Z" fill="url(#paint5_linear_1_18)"/>
<path d="M381.258 194.149C355.258 195.269 345.498 196.789 321.658 203.269C305.578 207.669 279.018 216.629 281.658 216.789C282.138 216.789 286.458 215.909 291.258 214.869C309.098 210.869 326.378 209.509 372.058 208.469C412.778 207.509 414.378 207.429 411.498 206.149C409.898 205.429 403.898 202.549 398.298 199.749C386.058 193.749 386.778 193.909 381.258 194.149Z" fill="url(#paint6_linear_1_18)"/>
<path d="M326.058 212.069C314.698 212.869 303.418 214.309 302.698 215.029C302.378 215.349 302.938 216.629 303.898 217.749C305.658 219.909 305.898 219.989 319.258 220.789C337.738 221.989 359.818 225.109 395.498 231.669C411.978 234.629 411.978 234.549 397.178 225.909C379.898 215.829 379.418 215.589 372.458 214.469C366.298 213.509 339.738 211.109 336.858 211.349C335.978 211.349 331.098 211.749 326.058 212.069Z" fill="url(#paint7_linear_1_18)"/>
<path d="M104.458 214.069C82.2982 216.149 60.7782 219.189 58.4582 220.709C56.8582 221.669 45.0982 234.469 45.4182 234.789C45.6582 235.029 50.2182 233.909 55.7382 232.309C67.0982 229.029 65.9782 229.269 74.8582 227.269C98.4582 221.749 120.138 219.589 144.778 220.229C164.698 220.709 176.218 222.469 188.698 226.789C195.178 229.109 195.818 229.189 193.658 227.669C188.458 224.069 172.378 219.109 156.858 216.309C147.418 214.549 142.778 214.229 126.858 213.989C116.538 213.909 106.458 213.909 104.458 214.069Z" fill="url(#paint8_linear_1_18)"/>
<path d="M294.058 216.309C291.658 216.789 289.658 217.589 289.738 217.989C289.738 218.469 290.698 220.789 291.898 223.349C294.618 228.869 295.978 235.989 297.658 252.469C299.018 266.389 299.818 270.069 302.058 273.749L303.498 276.149L304.858 273.509C305.658 271.989 306.378 270.709 306.458 270.549C306.618 270.389 308.138 271.189 309.978 272.309C313.098 274.309 314.858 274.869 314.858 273.989C314.858 273.749 314.138 272.149 313.258 270.389C311.498 266.949 310.058 259.429 308.058 243.189C306.458 230.389 303.658 220.789 300.618 217.669C298.538 215.429 298.378 215.429 294.058 216.309Z" fill="url(#paint9_linear_1_18)"/>
<path d="M276.858 220.309C270.138 222.469 262.698 225.669 263.178 226.149C263.338 226.309 265.578 225.909 268.138 225.269C270.778 224.629 276.058 223.509 279.978 222.789C283.898 222.149 287.258 221.429 287.418 221.269C287.578 221.109 287.498 220.389 287.178 219.669C286.538 217.909 283.578 218.069 276.858 220.309Z" fill="url(#paint10_linear_1_18)"/>
<path d="M122.858 222.069C90.0582 225.909 74.2982 229.029 50.4582 236.389C43.0982 238.709 40.9382 239.749 37.5782 242.709C35.3382 244.709 32.5382 246.549 31.3382 246.869C27.3382 247.829 10.8582 269.829 12.6982 271.749C13.0182 272.069 30.6182 271.829 51.8982 271.349C73.0982 270.789 106.858 269.989 126.858 269.589C146.858 269.189 173.738 268.629 186.538 268.309L209.818 267.829L210.778 264.069C211.978 259.509 216.218 253.589 220.538 250.469L223.738 248.069L219.898 245.029C201.018 230.149 175.178 222.549 141.258 221.989C132.698 221.829 124.378 221.909 122.858 222.069ZM185.258 240.309C193.258 241.669 203.578 244.789 208.698 247.349C210.298 248.149 211.658 248.949 211.658 249.109C211.658 249.189 205.978 248.549 199.098 247.509C170.538 243.429 140.378 243.029 99.6582 246.069C95.8982 246.389 93.0182 246.389 93.2582 246.149C94.0582 245.349 123.418 240.709 134.858 239.589C149.418 238.229 174.698 238.549 185.258 240.309ZM171.738 254.149C183.338 255.029 177.098 255.749 157.258 255.909C147.818 255.989 127.658 256.389 112.458 256.789C56.8582 258.309 54.0582 258.309 60.8582 257.589C66.1382 257.029 93.7382 255.109 111.658 254.149C121.018 253.589 164.618 253.589 171.738 254.149Z" fill="url(#paint11_linear_1_18)"/>
<path d="M307.658 224.309C307.658 224.869 308.058 226.469 308.538 227.749C309.338 230.149 309.338 230.149 317.098 230.709C340.218 232.309 380.858 237.749 382.618 239.509C383.338 240.229 381.418 240.069 371.898 238.789C360.538 237.269 344.458 236.069 325.418 235.429L309.898 234.949L310.458 238.869C310.778 241.029 311.178 243.029 311.418 243.349C311.578 243.749 316.378 243.989 321.978 243.989C339.978 243.989 362.698 245.589 397.898 249.269C400.618 249.589 402.858 250.149 402.858 250.549C402.858 251.029 400.698 251.189 397.498 250.869C392.778 250.389 379.658 249.669 321.338 246.629L311.418 246.149L311.978 251.589C312.298 254.549 312.858 258.789 313.338 260.869L314.138 264.629L320.698 265.109C324.298 265.429 334.458 266.149 343.258 266.789C352.058 267.429 365.738 268.309 373.658 268.789C381.578 269.269 394.938 270.149 403.258 270.789C426.138 272.549 439.658 273.109 439.658 272.389C439.658 271.989 438.778 270.149 437.658 268.309C435.418 264.469 435.978 264.629 421.658 263.189C416.858 262.709 412.698 262.069 412.458 261.829C411.978 261.349 429.578 262.309 432.298 262.949C433.258 263.189 434.058 263.029 434.058 262.549C434.058 260.709 420.938 239.829 419.338 239.109C417.658 238.389 414.218 237.829 379.658 231.989C347.978 226.709 340.458 225.669 328.858 224.789C322.698 224.389 315.418 223.829 312.698 223.589C308.858 223.349 307.658 223.509 307.658 224.309ZM396.698 260.549C396.138 260.709 395.178 260.709 394.698 260.549C394.138 260.309 394.538 260.149 395.658 260.149C396.778 260.149 397.178 260.309 396.698 260.549ZM409.098 261.349C407.898 261.509 405.738 261.509 404.298 261.349C402.858 261.189 403.818 261.029 406.458 261.029C409.098 261.029 410.298 261.189 409.098 261.349Z" fill="url(#paint12_linear_1_18)"/>
<path d="M279.258 224.869C271.178 225.909 260.378 229.189 252.618 232.949C245.498 236.389 235.978 243.349 233.818 246.629C232.618 248.469 232.618 248.709 234.138 249.989C234.938 250.789 236.618 253.349 237.738 255.669L239.818 259.909L244.698 260.309C247.418 260.549 256.138 261.189 264.058 261.669C271.978 262.149 282.218 262.789 286.858 263.189C291.498 263.589 295.498 263.669 295.818 263.349C296.058 263.029 295.898 258.789 295.418 253.989L294.458 245.189L290.458 244.709L286.458 244.229L290.298 244.149C294.058 243.989 294.058 243.989 294.058 241.269C294.058 235.349 293.338 235.109 279.418 237.189C268.698 238.789 258.698 241.109 252.138 243.589C245.258 246.149 244.938 246.069 249.498 243.189C257.498 238.149 269.098 234.229 280.458 232.789C284.618 232.309 288.858 231.749 289.898 231.509C291.898 231.109 292.218 229.189 290.698 225.989C289.658 223.749 288.938 223.669 279.258 224.869Z" fill="url(#paint13_linear_1_18)"/>
<path d="M240.698 265.269C240.458 265.989 241.098 267.429 242.458 268.789C244.298 270.709 244.538 271.349 243.738 272.309C241.738 274.709 233.898 277.029 227.658 277.109C222.458 277.189 220.858 276.789 215.658 274.469L209.658 271.749L176.058 272.309C137.498 272.949 83.3382 274.069 38.9382 275.189C21.9782 275.589 8.05817 275.829 7.81817 275.669C7.65817 275.429 8.69817 273.589 10.2182 271.589C11.6582 269.509 13.4182 267.029 14.0582 266.069C15.2582 264.389 9.57817 268.869 3.09817 274.709C0.378166 277.269 -0.341834 278.309 0.138166 279.509C0.698166 280.949 1.73817 281.029 32.3782 280.469C49.8182 280.149 77.7382 279.589 94.4582 279.189C111.178 278.789 143.498 277.989 166.298 277.509L207.738 276.709L213.818 279.189C221.658 282.469 229.418 283.189 236.058 281.189C245.258 278.549 249.978 275.189 250.058 271.349C250.058 269.109 250.698 269.109 277.258 271.109C288.058 271.989 297.178 272.389 297.498 272.069C297.818 271.749 297.738 270.549 297.338 269.429C296.458 267.109 297.178 267.189 265.258 265.189C241.658 263.669 241.338 263.669 240.698 265.269Z" fill="url(#paint14_linear_1_18)"/>
<path d="M315.258 270.469C315.578 271.509 316.218 272.789 316.778 273.269C317.258 273.829 325.818 274.709 338.058 275.509C349.258 276.309 365.578 277.429 374.378 278.069C383.098 278.709 401.418 279.909 415.178 280.789C428.858 281.669 441.578 282.549 443.418 282.789C446.938 283.269 450.058 282.229 450.058 280.549C450.058 279.989 448.058 277.589 445.578 275.189C443.098 272.789 441.178 271.109 441.418 271.589C441.578 271.989 442.218 273.349 442.778 274.629C443.418 275.829 443.738 276.949 443.578 277.109C443.258 277.429 428.858 276.629 405.258 274.789C396.698 274.149 383.578 273.269 376.058 272.789C368.618 272.309 355.818 271.429 347.658 270.789C339.498 270.149 328.778 269.429 323.738 269.109L314.698 268.549L315.258 270.469Z" fill="url(#paint15_linear_1_18)"/>
<defs>
<linearGradient id="paint0_linear_1_18" x1="279.458" y1="0" x2="279.458" y2="197.189" gradientUnits="userSpaceOnUse">
<stop offset="0.429482" stop-color="#67BCE4"/>
<stop offset="1" stop-color="#001F41"/>
</linearGradient>
<linearGradient id="paint1_linear_1_18" x1="171.305" y1="112.789" x2="171.305" y2="245.989" gradientUnits="userSpaceOnUse">
<stop offset="0.429482" stop-color="#67BCE4"/>
<stop offset="1" stop-color="#001F41"/>
</linearGradient>
<linearGradient id="paint2_linear_1_18" x1="141.357" y1="135.989" x2="141.357" y2="242.789" gradientUnits="userSpaceOnUse">
<stop offset="0.429482" stop-color="#67BCE4"/>
<stop offset="1" stop-color="#001F41"/>
</linearGradient>
<linearGradient id="paint3_linear_1_18" x1="312.658" y1="140.069" x2="312.658" y2="245.733" gradientUnits="userSpaceOnUse">
<stop offset="0.429482" stop-color="#67BCE4"/>
<stop offset="1" stop-color="#001F41"/>
</linearGradient>
<linearGradient id="paint4_linear_1_18" x1="321.036" y1="166.469" x2="321.036" y2="243.95" gradientUnits="userSpaceOnUse">
<stop offset="0.429482" stop-color="#67BCE4"/>
<stop offset="1" stop-color="#001F41"/>
</linearGradient>
<linearGradient id="paint5_linear_1_18" x1="133.205" y1="173.589" x2="133.205" y2="240.844" gradientUnits="userSpaceOnUse">
<stop offset="0.429482" stop-color="#67BCE4"/>
<stop offset="1" stop-color="#001F41"/>
</linearGradient>
<linearGradient id="paint6_linear_1_18" x1="346.946" y1="194.062" x2="346.946" y2="216.789" gradientUnits="userSpaceOnUse">
<stop offset="0.429482" stop-color="#67BCE4"/>
<stop offset="1" stop-color="#001F41"/>
</linearGradient>
<linearGradient id="paint7_linear_1_18" x1="355.342" y1="211.332" x2="355.342" y2="233.427" gradientUnits="userSpaceOnUse">
<stop offset="0.429482" stop-color="#67BCE4"/>
<stop offset="1" stop-color="#001F41"/>
</linearGradient>
<linearGradient id="paint8_linear_1_18" x1="120.092" y1="213.936" x2="120.092" y2="234.821" gradientUnits="userSpaceOnUse">
<stop offset="0.429482" stop-color="#67BCE4"/>
<stop offset="1" stop-color="#001F41"/>
</linearGradient>
<linearGradient id="paint9_linear_1_18" x1="302.297" y1="215.761" x2="302.297" y2="276.149" gradientUnits="userSpaceOnUse">
<stop offset="0.429482" stop-color="#67BCE4"/>
<stop offset="1" stop-color="#001F41"/>
</linearGradient>
<linearGradient id="paint10_linear_1_18" x1="275.327" y1="218.474" x2="275.327" y2="226.184" gradientUnits="userSpaceOnUse">
<stop offset="0.429482" stop-color="#67BCE4"/>
<stop offset="1" stop-color="#001F41"/>
</linearGradient>
<linearGradient id="paint11_linear_1_18" x1="118.147" y1="221.902" x2="118.147" y2="271.894" gradientUnits="userSpaceOnUse">
<stop offset="0.429482" stop-color="#67BCE4"/>
<stop offset="1" stop-color="#001F41"/>
</linearGradient>
<linearGradient id="paint12_linear_1_18" x1="373.658" y1="223.486" x2="373.658" y2="272.694" gradientUnits="userSpaceOnUse">
<stop offset="0.429482" stop-color="#67BCE4"/>
<stop offset="1" stop-color="#001F41"/>
</linearGradient>
<linearGradient id="paint13_linear_1_18" x1="264.442" y1="224.099" x2="264.442" y2="263.546" gradientUnits="userSpaceOnUse">
<stop offset="0.429482" stop-color="#67BCE4"/>
<stop offset="1" stop-color="#001F41"/>
</linearGradient>
<linearGradient id="paint14_linear_1_18" x1="148.848" y1="264.059" x2="148.848" y2="282.3" gradientUnits="userSpaceOnUse">
<stop offset="0.429482" stop-color="#67BCE4"/>
<stop offset="1" stop-color="#001F41"/>
</linearGradient>
<linearGradient id="paint15_linear_1_18" x1="382.378" y1="268.549" x2="382.378" y2="282.906" gradientUnits="userSpaceOnUse">
<stop offset="0.429482" stop-color="#67BCE4"/>
<stop offset="1" stop-color="#001F41"/>
</linearGradient>
</defs>
</svg>